<svg id="visual" viewBox="0 0 960 540" width="960" height="540" xmlns="http://www.w3.org/2000/svg" xmlns:xlink="http://www.w3.org/1999/xlink" version="1.1"><rect x="0" y="0" width="960" height="540" fill="#3C6E47"></rect><defs><linearGradient id="grad1_0" x1="43.8%" y1="0%" x2="100%" y2="100%"><stop offset="14.444444444444446%" stop-color="#3c6e47" stop-opacity="1"></stop><stop offset="85.55555555555554%" stop-color="#3c6e47" stop-opacity="1"></stop></linearGradient></defs><defs><linearGradient id="grad2_0" x1="0%" y1="0%" x2="56.3%" y2="100%"><stop offset="14.444444444444446%" stop-color="#3c6e47" stop-opacity="1"></stop><stop offset="85.55555555555554%" stop-color="#3c6e47" stop-opacity="1"></stop></linearGradient></defs><g transform="translate(960, 0)"><path d="M0 405C-54 394.7 -108.1 384.3 -148.1 357.5C-188.1 330.8 -214.2 287.6 -253.9 253.9C-293.5 220.1 -346.7 195.7 -374.2 155C-401.6 114.2 -403.3 57.1 -405 0L0 0Z" fill="#A3C9A8"></path></g><g transform="translate(0, 540)"><path d="M0 -405C44.5 -370.6 89 -336.2 129 -311.3C169 -286.5 204.5 -271.1 248.9 -248.9C293.3 -226.7 346.7 -197.6 374.2 -155C401.7 -112.4 403.3 -56.2 405 0L0 0Z" fill="#A3C9A8"></path></g></svg>
